<?xml version="1.0" standalone="no"?>
<!DOCTYPE svg PUBLIC "-//W3C//DTD SVG 20010904//EN"
 "http://www.w3.org/TR/2001/REC-SVG-20010904/DTD/svg10.dtd">
<svg version="1.0" xmlns="http://www.w3.org/2000/svg"
 width="255.000000pt" height="95.000000pt" viewBox="0 0 255.000000 95.000000"
 preserveAspectRatio="xMidYMid meet">

<g transform="translate(0.000000,95.000000) scale(0.100000,-0.100000)"
fill="#000000" stroke="none">
<path d="M0 475 l0 -475 1275 0 1275 0 0 475 0 475 -1275 0 -1275 0 0 -475z
m620 395 c127 -24 245 -114 298 -227 24 -53 27 -69 27 -173 0 -105 -3 -119
-27 -165 -85 -162 -220 -242 -393 -233 -130 7 -235 64 -305 168 -55 81 -74
153 -68 262 5 75 11 99 39 154 54 107 164 190 281 213 61 12 88 12 148 1z
m463 -157 c-13 -2 -23 -11 -23 -19 0 -8 10 -15 23 -15 l22 -2 -22 -4 c-15 -3
-23 -12 -23 -24 0 -10 -4 -19 -10 -19 -5 0 -10 20 -10 45 0 44 0 45 33 44 23
-1 26 -3 10 -6z m70 0 c-13 -2 -23 -11 -23 -19 0 -8 10 -15 23 -15 l22 -2 -22
-4 c-13 -2 -23 -11 -23 -18 0 -7 10 -16 23 -18 16 -3 13 -5 -10 -6 -33 -1 -33
0 -33 44 0 44 0 45 33 44 23 -1 26 -3 10 -6z m95 -5 c7 -7 12 -21 12 -33 0
-29 -19 -45 -52 -45 -27 0 -28 2 -28 45 0 43 1 45 28 45 15 0 33 -5 40 -12z
m75 5 c-13 -2 -23 -11 -23 -19 0 -8 10 -15 23 -15 l22 -2 -22 -4 c-13 -2 -23
-11 -23 -18 0 -7 10 -16 23 -18 16 -3 13 -5 -10 -6 -33 -1 -33 0 -33 44 0 44
0 45 33 44 23 -1 26 -3 10 -6z m90 -30 c-4 -47 12 -48 27 -3 18 53 41 52 62
-2 l17 -43 0 43 c1 23 6 42 11 42 6 0 10 -18 10 -39 0 -33 4 -40 23 -44 12 -2
1 -5 -24 -6 -33 -1 -49 3 -53 14 -3 8 -12 15 -21 15 -8 0 -15 -7 -15 -15 0 -9
-9 -15 -25 -15 -14 0 -28 7 -31 15 -4 8 -10 15 -15 15 -5 0 -9 -7 -9 -15 0 -8
-4 -15 -10 -15 -5 0 -10 21 -10 46 0 45 0 45 33 42 29 -3 32 -6 30 -35z m257
10 l13 -28 9 28 c16 44 38 34 38 -18 0 -45 -19 -66 -21 -22 l0 22 -9 -22 c-5
-13 -14 -23 -20 -23 -6 0 -15 10 -20 23 l-9 22 0 -22 c-2 -44 -21 -23 -21 22
0 52 19 61 40 18z m100 -18 c0 -25 -4 -45 -10 -45 -5 0 -10 20 -10 45 0 25 5
45 10 45 6 0 10 -20 10 -45z m62 18 l17 -28 1 28 c0 15 5 27 10 27 6 0 10 -20
10 -45 0 -52 -17 -59 -42 -17 l-17 27 -1 -27 c0 -16 -4 -28 -10 -28 -5 0 -10
20 -10 45 0 52 17 59 42 18z m78 -18 c0 -25 -4 -45 -10 -45 -5 0 -10 20 -10
45 0 25 5 45 10 45 6 0 10 -20 10 -45z m148 38 c-13 -3 -18 -15 -18 -44 0 -21
-4 -39 -10 -39 -5 0 -10 19 -10 41 0 38 -2 41 -22 35 -13 -3 -30 -6 -38 -6
-10 0 -7 -6 9 -19 30 -23 22 -51 -14 -51 -14 0 -25 5 -25 10 0 6 10 10 23 10
l22 0 -24 19 c-16 12 -22 24 -18 35 5 13 20 16 74 15 37 -1 60 -3 51 -6z m132
-12 c9 -15 11 -14 20 2 18 29 31 19 15 -13 -8 -16 -15 -36 -15 -45 0 -8 -4
-15 -10 -15 -5 0 -10 8 -10 18 0 9 -9 28 -19 41 l-18 24 -7 -28 c-4 -16 -2
-33 5 -41 9 -11 8 -14 -5 -14 -9 0 -19 7 -22 15 -4 8 -10 15 -15 15 -5 0 -9
-7 -9 -15 0 -8 -4 -15 -10 -15 -5 0 -10 20 -10 45 l0 45 50 -1 c35 -1 53 -7
60 -18z m168 7 c7 -7 12 -21 12 -33 0 -12 -5 -26 -12 -33 -7 -7 -21 -12 -33
-12 -12 0 -26 5 -33 12 -7 7 -12 21 -12 33 0 12 5 26 12 33 7 7 21 12 33 12
12 0 26 -5 33 -12z m65 5 c-13 -2 -23 -11 -23 -19 0 -8 10 -15 23 -15 l22 -2
-22 -4 c-15 -3 -23 -12 -23 -24 0 -10 -4 -19 -10 -19 -5 0 -10 20 -10 45 0 44
0 45 33 44 23 -1 26 -3 10 -6z m-1313 -208 l0 -45 40 0 40 0 0 45 c0 43 1 45
30 45 l30 0 0 -110 0 -110 -30 0 c-29 0 -30 2 -30 45 l0 45 -40 0 -40 0 0 -45
c0 -43 -1 -45 -30 -45 l-30 0 0 110 0 110 30 0 c29 0 30 -2 30 -45z m370 25
c0 -17 -7 -20 -45 -20 -41 0 -45 -2 -45 -25 0 -22 4 -25 40 -25 33 0 40 -3 40
-20 0 -17 -7 -20 -40 -20 -36 0 -40 -2 -40 -25 0 -23 4 -25 45 -25 38 0 45 -3
45 -20 0 -18 -7 -20 -75 -20 l-75 0 0 110 0 110 75 0 c68 0 75 -2 75 -20z
m185 3 c4 -10 22 -60 40 -110 l34 -93 -30 0 c-22 0 -32 6 -39 25 -8 20 -16 25
-45 25 -29 0 -37 -5 -45 -25 -7 -19 -17 -25 -40 -25 l-30 0 34 93 c19 50 37
100 41 110 5 11 18 17 40 17 22 0 35 -6 40 -17z m185 -73 l0 -90 40 0 c33 0
40 -3 40 -20 0 -18 -7 -20 -70 -20 l-70 0 0 110 0 110 30 0 30 0 0 -90z m310
70 c0 -16 -7 -20 -30 -20 l-30 0 0 -90 0 -90 -30 0 -30 0 0 90 0 90 -30 0
c-23 0 -30 4 -30 20 0 19 7 20 90 20 83 0 90 -1 90 -20z m110 -25 l0 -45 40 0
40 0 0 45 c0 43 1 45 30 45 l30 0 0 -110 0 -110 -30 0 c-29 0 -30 2 -30 45 l0
45 -40 0 -40 0 0 -45 c0 -43 -1 -45 -30 -45 l-30 0 0 110 0 110 30 0 c29 0 30
-2 30 -45z"/>
<path d="M526 801 c-3 -5 1 -12 10 -15 13 -5 14 -9 4 -21 -18 -22 -30 -18 -30
10 0 27 -10 31 -40 15 -17 -9 -29 -48 -44 -137 -5 -31 -5 -32 24 -22 16 6 36
21 45 35 23 35 35 30 35 -16 0 -29 -4 -40 -15 -40 -8 0 -15 -9 -15 -20 0 -16
7 -20 35 -20 19 0 35 5 35 10 0 6 7 10 15 10 8 0 15 5 15 10 0 6 7 10 16 10
13 0 12 5 -6 31 -26 35 -21 50 6 21 17 -17 56 -42 67 -42 3 0 -2 36 -19 127
-6 31 -52 62 -64 43 -4 -7 -6 -19 -3 -27 3 -7 0 -13 -6 -13 -6 0 -11 14 -11
30 0 25 -4 30 -24 30 -14 0 -27 -4 -30 -9z m34 -181 c0 -5 -5 -10 -11 -10 -5
0 -7 5 -4 10 3 6 8 10 11 10 2 0 4 -4 4 -10z m-20 -30 c0 -5 -4 -10 -10 -10
-5 0 -10 5 -10 10 0 6 5 10 10 10 6 0 10 -4 10 -10z"/>
<path d="M294 666 c-12 -15 -18 -30 -14 -42 6 -15 9 -12 18 14 10 30 42 46 42
21 0 -5 5 -7 10 -4 8 5 7 11 -1 21 -16 20 -31 17 -55 -10z"/>
<path d="M747 683 c-14 -14 -6 -22 20 -20 24 2 29 -2 34 -33 5 -30 7 -32 14
-15 5 11 13 23 19 27 7 5 5 8 -4 8 -9 0 -23 9 -33 20 -17 20 -38 26 -50 13z"/>
<path d="M591 574 c-11 -13 -27 -15 -74 -11 l-60 5 29 -24 c45 -37 67 -39 119
-9 42 25 44 28 28 41 -23 17 -25 17 -42 -2z"/>
<path d="M287 553 c10 -14 19 -21 21 -14 6 18 -3 34 -21 37 -15 2 -15 0 0 -23z"/>
<path d="M786 554 c-8 -22 1 -31 16 -16 9 9 9 15 1 23 -7 7 -12 5 -17 -7z"/>
<path d="M446 481 c1 -25 5 -64 9 -87 l7 -40 -61 -11 c-56 -11 -68 -16 -106
-51 -31 -28 -4 -34 73 -17 27 7 30 -11 2 -20 -11 -3 -20 -10 -20 -14 0 -4 30
-2 68 5 85 17 190 16 267 0 33 -7 62 -12 64 -10 7 6 -6 15 -25 18 -21 3 -32
26 -12 26 7 -1 32 -5 56 -9 32 -6 42 -5 42 5 0 16 -68 64 -90 64 -8 0 -31 5
-51 10 l-37 10 14 46 c9 30 10 53 4 69 -6 15 -6 27 0 30 6 4 10 10 10 15 0 5
-20 -5 -45 -22 -41 -29 -45 -35 -47 -77 0 -25 0 -56 1 -67 2 -30 -17 -76 -29
-69 -5 3 -9 44 -9 90 2 86 -8 115 -38 115 -7 0 -16 6 -19 14 -3 8 -11 17 -18
19 -8 3 -11 -9 -10 -42z m4 -156 c0 -8 -7 -15 -15 -15 -16 0 -20 12 -8 23 11
12 23 8 23 -8z m223 1 c6 -16 -19 -30 -28 -16 -7 11 2 30 15 30 4 0 10 -6 13
-14z m83 -17 c3 -6 2 -15 -2 -19 -12 -12 -38 5 -30 19 9 14 23 14 32 0z m-381
-9 c3 -5 -3 -10 -14 -10 -12 0 -21 5 -21 10 0 6 6 10 14 10 8 0 18 -4 21 -10z
m135 -9 c0 -14 -18 -23 -30 -16 -6 4 -8 11 -5 16 8 12 35 12 35 0z m110 -6 c0
-8 -7 -15 -15 -15 -8 0 -15 7 -15 15 0 8 7 15 15 15 8 0 15 -7 15 -15z"/>
<path d="M700 509 c0 -5 5 -7 10 -4 6 3 10 8 10 11 0 2 -4 4 -10 4 -5 0 -10
-5 -10 -11z"/>
<path d="M870 480 c6 -11 13 -20 16 -20 2 0 0 9 -6 20 -6 11 -13 20 -16 20 -2
0 0 -9 6 -20z"/>
<path d="M216 475 c-3 -8 -1 -15 4 -15 6 0 10 7 10 15 0 8 -2 15 -4 15 -2 0
-6 -7 -10 -15z"/>
<path d="M715 450 c9 -30 13 -35 21 -27 3 3 -2 16 -11 29 l-17 23 7 -25z"/>
<path d="M410 438 c0 -12 3 -18 7 -14 11 10 12 36 2 36 -5 0 -9 -10 -9 -22z"/>
<path d="M676 447 c3 -10 9 -15 12 -12 3 3 0 11 -7 18 -10 9 -11 8 -5 -6z"/>
<path d="M801 434 c0 -11 3 -14 6 -6 3 7 2 16 -1 19 -3 4 -6 -2 -5 -13z"/>
<path d="M870 430 c6 -11 16 -20 22 -20 6 0 3 9 -7 20 -10 11 -20 20 -22 20
-2 0 1 -9 7 -20z"/>
<path d="M500 210 l-45 -6 48 -8 c40 -7 146 0 135 8 -9 8 -98 12 -138 6z"/>
<path d="M1200 674 c0 -32 2 -34 20 -24 11 6 20 19 20 29 0 10 -9 21 -20 24
-17 4 -20 0 -20 -29z"/>
<path d="M1370 695 c0 -9 6 -12 15 -9 8 4 12 10 9 15 -8 14 -24 10 -24 -6z"/>
<path d="M2100 695 c0 -9 5 -15 11 -13 6 2 11 8 11 13 0 5 -5 11 -11 13 -6 2
-11 -4 -11 -13z"/>
<path d="M2300 675 c0 -20 5 -25 25 -25 20 0 25 5 25 25 0 20 -5 25 -25 25
-20 0 -25 -5 -25 -25z"/>
<path d="M1612 461 c-14 -39 -12 -44 16 -39 17 3 18 6 7 38 l-12 34 -11 -33z"/>
</g>
</svg>
